<?xml version="1.0" encoding="utf-8"?>
<!-- Generator: Adobe Illustrator 26.0.3, SVG Export Plug-In . SVG Version: 6.00 Build 0)  -->
<svg version="1.1" id="katman_1" xmlns="http://www.w3.org/2000/svg" xmlns:xlink="http://www.w3.org/1999/xlink" x="0px" y="0px"
	 viewBox="0 0 14400 14400" style="enable-background:new 0 0 14400 14400;" xml:space="preserve">
<style type="text/css">
	.st0{display:none;fill:#F7F7F7;}
	.st1{fill:#D4FEFF;}
	.st2{fill:#00D8CA;}
</style>
<rect x="6559.5" y="6559.5" class="st0" width="1280" height="1280"/>
<path class="st1" d="M7515.93,7424.5h-632.86c-18.54,0-33.57-15.03-33.57-33.57v-382.86c0-18.54,15.03-33.57,33.57-33.57h632.86
	c18.54,0,33.57,15.03,33.57,33.57v382.86C7549.5,7409.47,7534.47,7424.5,7515.93,7424.5z"/>
<path class="st2" d="M7549.15,7003.1v392.79c0,15.8-12.81,28.6-28.6,28.6l0,0c-0.77,0-1.4-0.63-1.4-1.4v-402.85
	c0-1.24-1.5-1.87-2.38-0.99l-296.14,296.15l0,0c-11.72,11.71-30.72,11.71-42.43-0.01l0,0l-295.96-295.96
	c-0.88-0.88-2.38-0.26-2.38,0.99v402.67c0,0.77-0.63,1.4-1.4,1.4l0,0c-15.8,0-28.6-12.81-28.6-28.6v-392.93
	c0-15.72,12.74-28.46,28.46-28.46h0.82c0.37,0,0.73,0.15,0.99,0.41l304.54,304.54c8.14,8.14,21.34,8.14,29.48,0l304.96-304.95
	l0.04,0.04v-0.04h1.4C7536.34,6974.5,7549.15,6987.31,7549.15,7003.1z"/>
<polygon class="st2" points="6880.21,6974.5 6880.21,6974.64 6880.07,6974.5 "/>
<path class="st2" d="M7182.28,7359.2"/>
</svg>
